<svg id="visual" viewBox="0 0 900 600" width="900" height="600" xmlns="http://www.w3.org/2000/svg" xmlns:xlink="http://www.w3.org/1999/xlink" version="1.1"><rect x="0" y="0" width="900" height="600" fill="#001220"></rect><defs><linearGradient id="grad1_0" x1="33.3%" y1="0%" x2="100%" y2="100%"><stop offset="20%" stop-color="#001220" stop-opacity="1"></stop><stop offset="80%" stop-color="#001220" stop-opacity="1"></stop></linearGradient></defs><defs><linearGradient id="grad2_0" x1="0%" y1="0%" x2="66.7%" y2="100%"><stop offset="20%" stop-color="#001220" stop-opacity="1"></stop><stop offset="80%" stop-color="#001220" stop-opacity="1"></stop></linearGradient></defs><g transform="translate(900, 0)"><path d="M0 486.7C-66.5 480.2 -133 473.7 -183.7 443.5C-234.3 413.3 -269.1 359.4 -315.4 315.4C-361.6 271.4 -419.2 237.2 -449.7 186.3C-480.2 135.4 -483.5 67.7 -486.7 0L0 0Z" fill="#FBAE3C"></path></g><g transform="translate(0, 600)"><path d="M0 -486.7C57.6 -462.6 115.3 -438.5 172.2 -415.7C229.1 -393 285.4 -371.5 334.5 -334.5C383.6 -297.4 425.5 -244.6 449.7 -186.3C473.9 -127.9 480.3 -64 486.7 0L0 0Z" fill="#FBAE3C"></path></g></svg>